# xmcd CD database file
#
# Track frame offsets:
#	150
#	1267
#	31562
#	48425
#	79952
#	98822
#	120620
#	141582
#	182415
#	200687
#	204592
#	229370
#	249947
#	277012
#	316877
#
# Disc length: 4502 seconds
#
# Revision: 3
# Processed by: cddbd v1.5.1PL0 Copyright (c) Steve Scherf et al.
# Submitted via: CDex 1.51
#
DISCID=cc11940f
DTITLE=Helloween - Keeper Lost The Three Keys Live In Munich
DYEAR=1986
DGENRE=Heavy Metal
TTITLE0=Intro
TTITLE1=Ride The Sky
TTITLE2=Gorgar
TTITLE3=Victim Of Fate
TTITLE4=Reptile
TTITLE5=Judas
TTITLE6=Guardian
TTITLE7=Heavy Metal Is The Law
TTITLE8=Metal Invaders
TTITLE9=Invitation
TTITLE10=Eagle Fly Free
TTITLE11=Dr. Stein
TTITLE12=Marchin' Time
TTITLE13=Future World
TTITLE14=I Want Out
EXTD=YEAR: 1986-1989
EXTT0=
EXTT1=
EXTT2=
EXTT3=
EXTT4=
EXTT5=
EXTT6=
EXTT7=
EXTT8=
EXTT9=
EXTT10=
EXTT11=
EXTT12=
EXTT13=
EXTT14=
PLAYORDER=
